<svg width="1643" height="540" viewBox="0 0 1643 540" fill="none" xmlns="http://www.w3.org/2000/svg">
<path d="M309.522 182.884C336.227 182.884 355.847 201.959 355.847 250.464V368.184C355.847 412.874 370.017 425.954 405.442 425.954H429.422C435.417 425.954 440.322 423.774 440.322 416.689V414.509C440.322 407.424 435.962 405.244 429.422 405.244H421.792C405.442 405.244 398.357 394.889 398.357 365.459V247.739C398.357 196.509 376.012 157.814 320.422 157.814C283.362 157.814 252.842 174.709 237.582 216.129C229.407 181.249 206.517 157.814 164.007 157.814C130.217 157.814 101.332 171.984 85.5273 205.229V175.254C85.5273 162.719 83.3473 157.814 76.8073 157.814C71.3573 157.814 68.6323 160.539 54.4623 164.354C40.8373 168.169 26.1223 170.349 12.4973 170.349C4.86733 170.349 2.14233 173.074 2.14233 180.704V181.794C2.14233 188.334 4.86733 190.514 12.4973 190.514H27.2123C39.7473 190.514 43.0173 193.239 43.0173 216.129V373.089C43.0173 401.974 41.9273 405.244 13.0423 405.244H10.8623C2.68733 405.244 0.507324 408.514 0.507324 414.509V416.689C0.507324 423.229 3.23233 425.954 10.8623 425.954H116.592C122.587 425.954 126.402 423.229 126.402 416.689V414.509C126.402 408.514 124.222 405.244 116.592 405.244H114.412C86.0723 405.244 85.5273 400.884 85.5273 371.999V263.544C89.8873 209.044 121.497 182.884 153.107 182.884C179.267 182.884 198.887 201.959 198.887 250.464V373.089C198.887 401.974 197.797 405.244 170.002 405.244H167.277C160.192 405.244 158.012 408.514 158.012 414.509V416.689C158.012 423.229 160.192 425.954 167.277 425.954H273.552C280.092 425.954 283.907 423.229 283.907 416.689V414.509C283.907 408.514 281.182 405.244 273.552 405.244H271.372C242.487 405.244 241.397 400.884 241.397 371.999V277.169C241.397 213.404 275.732 182.884 309.522 182.884ZM515.217 174.709C515.217 162.174 513.037 157.269 507.042 157.269C501.592 157.269 498.867 159.994 484.697 163.809C471.072 167.624 456.357 169.804 442.187 169.804C435.102 169.804 431.832 172.529 431.832 180.159V181.249C431.832 187.789 435.102 189.969 442.187 189.969H456.902C467.802 189.969 472.162 192.149 473.252 209.589V373.089C473.252 401.974 471.617 405.244 443.277 405.244H440.552C432.922 405.244 430.197 408.514 430.197 414.509V416.689C430.197 423.229 434.557 425.954 440.552 425.954H547.372C553.912 425.954 557.727 423.229 557.727 416.689V414.509C557.727 408.514 555.547 405.244 547.372 405.244H545.192C516.307 405.244 515.217 400.884 515.217 371.999V174.709ZM493.962 104.949C509.767 104.949 521.212 93.5039 521.212 78.7889C521.212 63.5289 509.767 52.0839 494.507 52.0839C480.337 52.0839 467.802 63.5289 467.802 78.7889C467.802 93.5039 480.337 104.949 493.962 104.949ZM632.362 40.0939C632.362 27.5589 630.727 22.6539 624.187 22.6539C618.737 22.6539 616.012 25.3789 601.842 29.1939C588.217 33.0089 573.502 35.1889 559.332 35.1889C552.247 35.1889 549.522 38.4589 549.522 45.5439V46.6339C549.522 53.1739 552.247 55.3539 559.332 55.3539H574.592C587.127 55.3539 590.397 58.0789 590.397 80.9689V373.089C590.397 401.974 588.762 405.244 560.422 405.244H558.242C550.067 405.244 547.887 408.514 547.887 414.509V416.689C547.887 423.229 551.702 425.954 558.242 425.954H664.517C671.057 425.954 674.872 423.229 674.872 416.689V414.509C674.872 408.514 672.692 405.244 664.517 405.244H662.337C633.452 405.244 632.362 400.884 632.362 371.999V40.0939ZM749.078 40.0939C749.078 27.5589 746.898 22.6539 740.358 22.6539C735.453 22.6539 732.183 25.3789 718.558 29.1939C704.388 33.0089 690.218 35.1889 676.048 35.1889C668.418 35.1889 665.693 38.4589 665.693 45.5439V46.6339C665.693 53.1739 668.418 55.3539 676.048 55.3539H690.763C703.298 55.3539 706.568 58.0789 706.568 80.9689V373.089C706.568 401.974 705.478 405.244 677.138 405.244H674.413C666.238 405.244 664.058 408.514 664.058 414.509V416.689C664.058 423.229 668.418 425.954 674.413 425.954H781.233C787.228 425.954 791.588 423.229 791.588 416.689V414.509C791.588 408.514 788.863 405.244 781.233 405.244H778.508C750.168 405.244 749.078 400.884 749.078 371.999V315.864L779.598 288.069L830.828 376.904C852.628 415.054 870.068 425.954 906.583 425.954H928.928C937.648 425.954 940.918 424.864 940.918 413.964C940.918 408.514 937.648 405.244 931.653 405.244H923.478C905.493 405.244 894.048 398.159 867.343 352.379L811.753 259.184L856.988 217.764C878.243 198.144 896.228 183.974 910.398 183.974H922.388C929.473 183.974 931.653 180.704 931.653 175.254V172.529C931.653 161.629 920.753 163.264 913.668 163.264H829.738C824.288 163.264 820.473 165.989 820.473 172.529V175.254C820.473 180.704 822.653 183.974 829.738 183.974H841.728C850.993 183.974 859.168 188.334 843.363 203.594L749.078 294.064V40.0939ZM873.946 539.999C865.226 539.999 858.323 538.182 853.236 534.549C848.149 530.916 845.606 526.737 845.606 522.014C845.606 519.107 846.696 515.474 848.876 511.114L857.728 493.411C858.315 492.236 859.516 491.494 860.829 491.494V491.494C861.561 491.494 862.275 491.726 862.868 492.157L873.946 500.214C878.669 503.484 885.573 505.119 894.656 505.119C908.826 505.119 920.089 497.852 928.446 483.319C936.803 469.149 942.798 449.711 946.431 425.004L980.832 193.722C981.372 190.097 978.563 186.839 974.898 186.839H945.891C942.577 186.839 939.891 184.153 939.891 180.839V168.859C939.891 165.546 942.577 162.859 945.891 162.859H979.999C982.952 162.859 985.465 160.711 985.926 157.795L988.396 142.149C990.213 129.432 995.663 115.081 1004.75 99.0942C1013.83 82.7442 1025.46 67.121 1039.63 52.2243C1053.8 37.3276 1069.78 24.9743 1087.59 15.1643C1105.75 5.35422 1124.65 0.449219 1144.27 0.449219C1157.35 0.449219 1168.61 1.90255 1178.06 4.80923C1187.87 7.7159 1196.4 11.531 1203.67 16.2543C1207.3 18.7976 1210.39 21.5226 1212.94 24.4293C1215.48 26.9726 1216.75 30.2426 1216.75 34.2393C1216.75 37.8726 1215.48 41.5058 1212.94 45.1392C1210.39 48.7725 1208.39 51.6792 1206.94 53.8592L1197.99 64.6985C1197.1 65.7724 1195.78 66.3942 1194.39 66.3942V66.3942C1193.34 66.3942 1192.32 66.0403 1191.5 65.3895L1182.42 58.2192C1171.15 49.8625 1161.34 43.8675 1152.99 40.2342C1144.99 36.2375 1135 34.2393 1123.01 34.2393C1099.76 34.2393 1081.41 42.2325 1067.97 58.2192C1054.52 74.2058 1045.98 94.916 1042.35 120.349L1036.87 155.947C1036.31 159.581 1039.13 162.859 1042.8 162.859H1202.51C1206.24 162.859 1209.07 166.235 1208.41 169.912L1177.51 343.254C1174.24 362.511 1177.15 372.139 1186.23 372.139C1192.04 372.139 1198.4 369.051 1205.31 362.874C1211.91 356.928 1218.22 347.828 1224.23 335.574C1225.25 333.491 1227.72 332.537 1229.85 333.451V333.451C1231.97 334.36 1232.99 336.789 1232.14 338.93C1222.02 364.237 1211.07 383.118 1199.31 395.574C1186.96 408.291 1173.7 414.649 1159.53 414.649C1145.36 414.649 1135.36 409.381 1129.55 398.844C1123.74 387.944 1122.65 373.229 1126.28 354.699L1154.48 193.875C1155.12 190.203 1152.29 186.839 1148.57 186.839H1037.16C1034.19 186.839 1031.67 189.009 1031.23 191.944L1015.92 293.387L999.841 399.934C998.751 407.564 995.481 417.192 990.031 428.819C984.944 440.809 978.223 453.162 969.866 465.879C961.873 478.596 952.608 490.586 942.071 501.849C931.898 513.112 920.998 522.196 909.371 529.099C897.744 536.366 885.936 539.999 873.946 539.999ZM1287.74 414.649C1270.3 414.649 1255.95 412.287 1244.69 407.564C1233.79 402.477 1225.61 396.301 1220.16 389.034C1215.44 383.221 1213.08 377.771 1213.08 372.684C1213.08 370.504 1213.44 368.324 1214.17 366.144C1214.74 364.117 1216.02 362.436 1217.98 361.101C1219 360.409 1219.93 359.567 1220.52 358.483L1232.37 336.587C1232.37 336.587 1233.65 343.199 1237.6 351.429C1241.07 358.668 1245.61 364.556 1246.65 365.87C1246.8 366.055 1246.93 366.245 1247.06 366.443C1252.84 375.379 1260.05 382.183 1268.67 386.854C1277.39 391.214 1286.29 393.394 1295.37 393.394C1308.45 393.394 1318.99 390.124 1326.98 383.584C1335.34 376.681 1339.52 367.052 1339.52 354.699C1339.52 341.256 1335.16 331.082 1326.44 324.179C1318.08 316.912 1307 309.101 1293.19 300.744C1280.47 292.751 1270.48 285.484 1263.22 278.944C1255.95 272.404 1250.86 265.501 1247.96 258.234C1245.41 250.604 1244.14 241.339 1244.14 230.439C1244.14 219.539 1248.5 208.457 1257.22 197.194C1265.94 185.931 1277.2 176.484 1291.01 168.854C1304.82 161.224 1319.53 157.409 1335.16 157.409C1350.05 157.409 1361.86 159.771 1370.58 164.494C1379.3 169.217 1386.02 175.031 1390.75 181.934C1394.74 188.111 1396.74 193.197 1396.74 197.194C1396.74 199.737 1396.2 202.099 1395.11 204.279C1394.38 206.459 1392.74 208.276 1390.2 209.729L1377.76 217.692C1376.99 218.186 1376.09 218.449 1375.18 218.449V218.449C1373.66 218.449 1372.23 217.73 1371.32 216.509L1360.23 201.554C1355.14 194.651 1349.69 189.382 1343.88 185.749C1338.06 181.752 1330.61 179.754 1321.53 179.754C1311.36 179.754 1302.82 182.661 1295.92 188.474C1289.38 194.287 1286.11 202.099 1286.11 211.909C1286.11 222.082 1289.38 230.984 1295.92 238.614C1302.82 246.244 1311.72 252.966 1322.62 258.779C1341.15 269.316 1355.32 279.852 1365.13 290.389C1374.94 300.562 1379.85 315.459 1379.85 335.079C1379.85 348.886 1375.85 361.784 1367.86 373.774C1359.86 385.764 1348.96 395.574 1335.16 403.204C1321.35 410.834 1305.54 414.649 1287.74 414.649ZM1435.54 403.407C1434.96 406.756 1432.05 409.199 1428.65 409.199H1392.72C1388.37 409.199 1385.08 405.277 1385.82 400.994L1446.02 56.6305C1447.6 47.6085 1442.91 38.6557 1434.59 34.8246L1409.1 23.0883C1407.96 22.5609 1407.13 21.5191 1406.88 20.2835V20.2835C1406.43 18.0632 1407.93 15.9181 1410.17 15.5833L1493.05 3.19922V3.19922C1499.32 2.12452 1504.77 7.58763 1503.67 13.8568L1469.07 211.825C1468.96 212.438 1469.43 212.999 1470.05 212.999V212.999C1470.34 212.999 1470.61 212.876 1470.8 212.664C1483.03 199.016 1493.83 188.227 1503.2 180.299C1512.64 172.306 1521.73 166.492 1530.45 162.859C1539.53 159.226 1549.88 157.409 1561.51 157.409C1579.31 157.409 1593.12 164.676 1602.93 179.209C1612.74 193.742 1615.47 213.362 1611.11 238.069L1592.58 343.254C1588.94 362.511 1591.67 372.139 1600.75 372.139C1606.93 372.139 1613.47 369.051 1620.37 362.874C1625.03 358.454 1629.62 352.291 1632.25 349.558C1633.54 348.219 1635.51 349.003 1637.22 349.735V349.735C1639.96 350.91 1641.31 354.037 1640.21 356.81C1631.22 379.563 1625.73 383.337 1613.83 395.574C1601.48 408.291 1588.22 414.649 1574.05 414.649C1559.88 414.649 1549.88 409.381 1544.07 398.844C1538.62 387.944 1537.53 373.229 1540.8 354.699L1560.97 240.249C1562.78 228.259 1561.33 217.722 1556.61 208.639C1552.25 199.192 1542.8 194.469 1528.27 194.469C1521 194.469 1513.55 196.831 1505.92 201.554C1498.29 205.914 1490.84 211.546 1483.58 218.449C1476.76 224.581 1470.75 230.713 1465.53 236.845C1464.85 237.644 1464.4 238.613 1464.22 239.646L1435.54 403.407Z" fill=" #1d1d1d"/>
<rect x="647" y="405" width="42" height="21" fill=" #1d1d1d"/>
<rect x="532" y="405" width="42" height="21" fill=" #1d1d1d"/>
<rect x="413" y="405" width="42" height="21" fill=" #1d1d1d"/>
</svg>
