<svg width="1643" height="540" viewBox="0 0 1643 540" fill="none" xmlns="http://www.w3.org/2000/svg">
<path d="M309.522 165.93C336.227 165.93 355.847 185.005 355.847 233.51V351.23C355.847 395.92 370.017 409 405.442 409H429.422C435.417 409 440.322 406.82 440.322 399.735V397.555C440.322 390.47 435.962 388.29 429.422 388.29H421.792C405.442 388.29 398.357 377.935 398.357 348.505V230.785C398.357 179.555 376.012 140.86 320.422 140.86C283.362 140.86 252.842 157.755 237.582 199.175C229.407 164.295 206.517 140.86 164.007 140.86C130.217 140.86 101.332 155.03 85.5273 188.275V158.3C85.5273 145.765 83.3473 140.86 76.8073 140.86C71.3573 140.86 68.6323 143.585 54.4623 147.4C40.8373 151.215 26.1223 153.395 12.4973 153.395C4.86728 153.395 2.14228 156.12 2.14228 163.75V164.84C2.14228 171.38 4.86728 173.56 12.4973 173.56H27.2123C39.7473 173.56 43.0173 176.285 43.0173 199.175V356.135C43.0173 385.02 41.9273 388.29 13.0423 388.29H10.8623C2.68728 388.29 0.507278 391.56 0.507278 397.555V399.735C0.507278 406.275 3.23228 409 10.8623 409H116.592C122.587 409 126.402 406.275 126.402 399.735V397.555C126.402 391.56 124.222 388.29 116.592 388.29H114.412C86.0723 388.29 85.5273 383.93 85.5273 355.045V246.59C89.8873 192.09 121.497 165.93 153.107 165.93C179.267 165.93 198.887 185.005 198.887 233.51V356.135C198.887 385.02 197.797 388.29 170.002 388.29H167.277C160.192 388.29 158.012 391.56 158.012 397.555V399.735C158.012 406.275 160.192 409 167.277 409H273.552C280.092 409 283.907 406.275 283.907 399.735V397.555C283.907 391.56 281.182 388.29 273.552 388.29H271.372C242.487 388.29 241.397 383.93 241.397 355.045V260.215C241.397 196.45 275.732 165.93 309.522 165.93ZM515.217 157.755C515.217 145.22 513.037 140.315 507.042 140.315C501.592 140.315 498.867 143.04 484.697 146.855C471.072 150.67 456.357 152.85 442.187 152.85C435.102 152.85 431.832 155.575 431.832 163.205V164.295C431.832 170.835 435.102 173.015 442.187 173.015H456.902C467.802 173.015 472.162 175.195 473.252 192.635V356.135C473.252 385.02 471.617 388.29 443.277 388.29H440.552C432.922 388.29 430.197 391.56 430.197 397.555V399.735C430.197 406.275 434.557 409 440.552 409H547.372C553.912 409 557.727 406.275 557.727 399.735V397.555C557.727 391.56 555.547 388.29 547.372 388.29H545.192C516.307 388.29 515.217 383.93 515.217 355.045V157.755ZM493.962 87.995C509.767 87.995 521.212 76.55 521.212 61.835C521.212 46.575 509.767 35.13 494.507 35.13C480.337 35.13 467.802 46.575 467.802 61.835C467.802 76.55 480.337 87.995 493.962 87.995ZM632.362 23.14C632.362 10.605 630.727 5.69999 624.187 5.69999C618.737 5.69999 616.012 8.42499 601.842 12.24C588.217 16.055 573.502 18.235 559.332 18.235C552.247 18.235 549.522 21.505 549.522 28.59V29.68C549.522 36.22 552.247 38.4 559.332 38.4H574.592C587.127 38.4 590.397 41.125 590.397 64.015V356.135C590.397 385.02 588.762 388.29 560.422 388.29H558.242C550.067 388.29 547.887 391.56 547.887 397.555V399.735C547.887 406.275 551.702 409 558.242 409H664.517C671.057 409 674.872 406.275 674.872 399.735V397.555C674.872 391.56 672.692 388.29 664.517 388.29H662.337C633.452 388.29 632.362 383.93 632.362 355.045V23.14ZM749.078 23.14C749.078 10.605 746.898 5.69999 740.358 5.69999C735.453 5.69999 732.183 8.42499 718.558 12.24C704.388 16.055 690.218 18.235 676.048 18.235C668.418 18.235 665.693 21.505 665.693 28.59V29.68C665.693 36.22 668.418 38.4 676.048 38.4H690.763C703.298 38.4 706.568 41.125 706.568 64.015V356.135C706.568 385.02 705.478 388.29 677.138 388.29H674.413C666.238 388.29 664.058 391.56 664.058 397.555V399.735C664.058 406.275 668.418 409 674.413 409H781.233C787.228 409 791.588 406.275 791.588 399.735V397.555C791.588 391.56 788.863 388.29 781.233 388.29H778.508C750.168 388.29 749.078 383.93 749.078 355.045V298.91L779.598 271.115L830.828 359.95C852.628 398.1 870.068 409 906.583 409H928.928C937.648 409 940.918 407.91 940.918 397.01C940.918 391.56 937.648 388.29 931.653 388.29H923.478C905.493 388.29 894.048 381.205 867.343 335.425L811.753 242.23L856.988 200.81C878.243 181.19 896.228 167.02 910.398 167.02H922.388C929.473 167.02 931.653 163.75 931.653 158.3V155.575C931.653 144.675 920.753 146.31 913.668 146.31H829.738C824.288 146.31 820.473 149.035 820.473 155.575V158.3C820.473 163.75 822.653 167.02 829.738 167.02H841.728C850.993 167.02 859.168 171.38 843.363 186.64L749.078 277.11V23.14ZM867.896 539.8C859.176 539.8 852.273 537.983 847.186 534.35C842.099 530.717 839.556 526.538 839.556 521.815C839.556 518.908 840.646 515.275 842.826 510.915L852.636 491.295H855.906L867.896 500.015C872.619 503.285 879.523 504.92 888.606 504.92C902.776 504.92 914.039 497.653 922.396 483.12C930.753 468.95 936.748 449.512 940.381 424.805L975.806 186.64H933.841V162.66H979.076L982.346 141.95C984.163 129.233 989.613 114.882 998.696 98.895C1007.78 82.545 1019.41 66.9217 1033.58 52.025C1047.75 37.1283 1063.73 24.775 1081.54 14.965C1099.7 5.15497 1118.6 0.249968 1138.22 0.249968C1151.3 0.249968 1162.56 1.7033 1172.01 4.60998C1181.82 7.51665 1190.35 11.3317 1197.62 16.055C1201.25 18.5983 1204.34 21.3233 1206.89 24.23C1209.43 26.7733 1210.7 30.0433 1210.7 34.04C1210.7 37.6733 1209.43 41.3066 1206.89 44.94C1204.34 48.5733 1202.34 51.48 1200.89 53.66L1190.54 66.195H1186.72L1176.37 58.02C1165.1 49.6633 1155.29 43.6683 1146.94 40.035C1138.94 36.0383 1128.95 34.04 1116.96 34.04C1093.71 34.04 1075.36 42.0333 1061.92 58.02C1048.47 74.0066 1039.93 94.7167 1036.3 120.15L1029.76 162.66H1203.62L1171.46 343.055C1168.19 362.312 1171.1 371.94 1180.18 371.94C1185.99 371.94 1192.35 368.852 1199.26 362.675C1206.52 356.135 1213.43 345.78 1219.97 331.61L1227.6 334.88C1217.06 362.13 1205.61 382.295 1193.26 395.375C1180.91 408.092 1167.65 414.45 1153.48 414.45C1139.31 414.45 1129.31 409.182 1123.5 398.645C1117.69 387.745 1116.6 373.03 1120.23 354.5L1149.66 186.64H1025.95L993.791 399.735C992.701 407.365 989.431 416.993 983.981 428.62C978.894 440.61 972.173 452.963 963.816 465.68C955.823 478.397 946.558 490.387 936.021 501.65C925.848 512.913 914.948 521.997 903.321 528.9C891.694 536.167 879.886 539.8 867.896 539.8ZM1281.69 414.45C1264.25 414.45 1249.9 412.088 1238.64 407.365C1227.74 402.278 1219.56 396.102 1214.11 388.835C1209.39 383.022 1207.03 377.572 1207.03 372.485C1207.03 370.305 1207.39 368.125 1208.12 365.945C1208.84 363.402 1210.66 361.403 1213.57 359.95L1227.74 351.23H1231.55L1240.82 365.945C1246.63 375.028 1253.9 381.932 1262.62 386.655C1271.34 391.015 1280.24 393.195 1289.32 393.195C1302.4 393.195 1312.94 389.925 1320.93 383.385C1329.29 376.482 1333.47 366.853 1333.47 354.5C1333.47 341.057 1329.11 330.883 1320.39 323.98C1312.03 316.713 1300.95 308.902 1287.14 300.545C1274.42 292.552 1264.43 285.285 1257.17 278.745C1249.9 272.205 1244.81 265.302 1241.91 258.035C1239.36 250.405 1238.09 241.14 1238.09 230.24C1238.09 219.34 1242.45 208.258 1251.17 196.995C1259.89 185.732 1271.15 176.285 1284.96 168.655C1298.77 161.025 1313.48 157.21 1329.11 157.21C1344 157.21 1355.81 159.572 1364.53 164.295C1373.25 169.018 1379.97 174.832 1384.7 181.735C1388.69 187.912 1390.69 192.998 1390.69 196.995C1390.69 199.538 1390.15 201.9 1389.06 204.08C1388.33 206.26 1386.69 208.077 1384.15 209.53L1370.53 218.25H1366.71L1354.18 201.355C1349.09 194.452 1343.64 189.183 1337.83 185.55C1332.01 181.553 1324.56 179.555 1315.48 179.555C1305.31 179.555 1296.77 182.462 1289.87 188.275C1283.33 194.088 1280.06 201.9 1280.06 211.71C1280.06 221.883 1283.33 230.785 1289.87 238.415C1296.77 246.045 1305.67 252.767 1316.57 258.58C1335.1 269.117 1349.27 279.653 1359.08 290.19C1368.89 300.363 1373.8 315.26 1373.8 334.88C1373.8 348.687 1369.8 361.585 1361.81 373.575C1353.81 385.565 1342.91 395.375 1329.11 403.005C1315.3 410.635 1299.49 414.45 1281.69 414.45ZM1428.48 409H1378.34L1442.65 41.125L1401.23 22.05V18.235L1498.24 0.794993H1499.87L1462.81 212.8H1464.45C1476.8 198.993 1487.7 188.093 1497.15 180.1C1506.59 172.107 1515.68 166.293 1524.4 162.66C1533.48 159.027 1543.83 157.21 1555.46 157.21C1573.26 157.21 1587.07 164.477 1596.88 179.01C1606.69 193.543 1609.42 213.163 1605.06 237.87L1586.53 343.055C1582.89 362.312 1585.62 371.94 1594.7 371.94C1600.88 371.94 1607.42 368.852 1614.32 362.675C1621.22 356.135 1627.95 345.78 1634.49 331.61L1642.12 334.88C1631.94 362.13 1620.5 382.295 1607.78 395.375C1595.43 408.092 1582.17 414.45 1568 414.45C1553.83 414.45 1543.83 409.182 1538.02 398.645C1532.57 387.745 1531.48 373.03 1534.75 354.5L1554.92 240.05C1556.73 228.06 1555.28 217.523 1550.56 208.44C1546.2 198.993 1536.75 194.27 1522.22 194.27C1514.95 194.27 1507.5 196.632 1499.87 201.355C1492.24 205.715 1484.79 211.347 1477.53 218.25C1470.26 224.79 1463.9 231.33 1458.45 237.87L1428.48 409Z" fill="blanchedalmond"/>
</svg>
