<svg xmlns="http://www.w3.org/2000/svg" xmlns:xlink="http://www.w3.org/1999/xlink" version="1.1" width="1000" height="1000" viewBox="0 0 1000 1000" xml:space="preserve">
<desc>Created with Fabric.js 3.5.0</desc>
<defs>
</defs>
<rect x="0" y="0" width="100%" height="100%" fill="#ffffff"/>
<g transform="matrix(-3.5511 0 0 3.5511 499.9953 499.9953)" id="530861">
<g style="" vector-effect="non-scaling-stroke">
		<g transform="matrix(1 0 0 1 0 0)" id="Background">
<rect style="stroke: none; stroke-width: 1; stroke-dasharray: none; stroke-linecap: butt; stroke-dashoffset: 0; stroke-linejoin: miter; stroke-miterlimit: 4; is-custom-font: none; font-file-url: none; fill: rgb(255,255,255); fill-rule: nonzero; opacity: 1; visibility: hidden;" x="-128" y="-128" rx="0" ry="0" width="256" height="256"/>
</g>
		<g transform="matrix(1 0 0 1 34.5 25.242)" id="camera">
<circle style="stroke: rgb(186,186,186); stroke-width: 4; stroke-dasharray: none; stroke-linecap: round; stroke-dashoffset: 0; stroke-linejoin: round; stroke-miterlimit: 10; is-custom-font: none; font-file-url: none; fill: none; fill-rule: nonzero; opacity: 1; visibility: hidden;" cx="0" cy="0" r="37.5"/>
</g>
		<g transform="matrix(1 0 0 1 34.5 25.242)" id="camera">
<circle style="stroke: rgb(83,174,225); stroke-width: 4; stroke-dasharray: none; stroke-linecap: round; stroke-dashoffset: 0; stroke-linejoin: round; stroke-miterlimit: 10; is-custom-font: none; font-file-url: none; fill: none; fill-rule: nonzero; opacity: 1; visibility: hidden;" cx="0" cy="0" r="25.996"/>
</g>
		<g transform="matrix(1 0 0 1 34.5 25.242)" id="camera">
<circle style="stroke: rgb(186,186,186); stroke-width: 4; stroke-dasharray: none; stroke-linecap: round; stroke-dashoffset: 0; stroke-linejoin: round; stroke-miterlimit: 10; is-custom-font: none; font-file-url: none; fill: none; fill-rule: nonzero; opacity: 1; visibility: hidden;" cx="0" cy="0" r="15.831"/>
</g>
		<g transform="matrix(1 0 0 1 -21 -49)" id="camera">
<path style="stroke: rgb(186,186,186); stroke-width: 4; stroke-dasharray: none; stroke-linecap: round; stroke-dashoffset: 0; stroke-linejoin: round; stroke-miterlimit: 10; is-custom-font: none; font-file-url: none; fill: none; fill-rule: nonzero; opacity: 1; visibility: hidden;" transform=" translate(-107, -79)" d="M 127 79 c 0 2.75 -2.7 5 -6 5 H 93 c -3.3 0 -6 -2.25 -6 -5 s 2.7 -5 6 -5 h 28 C 124.3 74 127 76.25 127 79 z" stroke-linecap="round"/>
</g>
		<g transform="matrix(1 0 0 1 -64.833 -48.5)" id="camera">
<path style="stroke: none; stroke-width: 1; stroke-dasharray: none; stroke-linecap: butt; stroke-dashoffset: 0; stroke-linejoin: miter; stroke-miterlimit: 4; is-custom-font: none; font-file-url: none; fill: rgb(239,239,239); fill-rule: nonzero; opacity: 1; visibility: hidden;" transform=" translate(-63.167, -79.5)" d="M 81.167 79.5 c 0 2.292 -2.338 4.5 -5.196 4.5 H 50.363 c -2.858 0 -5.196 -2.208 -5.196 -4.5 s 2.338 -4.5 5.196 -4.5 h 25.607 C 78.829 75 81.167 77.208 81.167 79.5 z" stroke-linecap="round"/>
</g>
		<g transform="matrix(1 0 0 1 -64.833 -48.5)" id="camera">
<path style="stroke: rgb(186,186,186); stroke-width: 4; stroke-dasharray: none; stroke-linecap: round; stroke-dashoffset: 0; stroke-linejoin: round; stroke-miterlimit: 10; is-custom-font: none; font-file-url: none; fill: none; fill-rule: nonzero; opacity: 1; visibility: hidden;" transform=" translate(-63.167, -79.5)" d="M 81.167 79.5 c 0 2.292 -2.338 4.5 -5.196 4.5 H 50.363 c -2.858 0 -5.196 -2.208 -5.196 -4.5 s 2.338 -4.5 5.196 -4.5 h 25.607 C 78.829 75 81.167 77.208 81.167 79.5 z" stroke-linecap="round"/>
</g>
		<g transform="matrix(1 0 0 1 -64.8335 -56)" id="camera">
<path style="stroke: none; stroke-width: 1; stroke-dasharray: none; stroke-linecap: butt; stroke-dashoffset: 0; stroke-linejoin: miter; stroke-miterlimit: 4; is-custom-font: none; font-file-url: none; fill: rgb(239,239,239); fill-rule: nonzero; opacity: 1; visibility: hidden;" transform=" translate(-63.1665, -72)" d="M 74.333 72 c 0 1.65 -1.563 3 -3.473 3 H 55.473 C 53.563 75 52 73.65 52 72 s 1.563 -3 3.473 -3 h 15.388 C 72.771 69 74.333 70.35 74.333 72 z" stroke-linecap="round"/>
</g>
		<g transform="matrix(1 0 0 1 -64.8335 -56)" id="camera">
<path style="stroke: rgb(186,186,186); stroke-width: 4; stroke-dasharray: none; stroke-linecap: round; stroke-dashoffset: 0; stroke-linejoin: round; stroke-miterlimit: 10; is-custom-font: none; font-file-url: none; fill: none; fill-rule: nonzero; opacity: 1; visibility: hidden;" transform=" translate(-63.1665, -72)" d="M 74.333 72 c 0 1.65 -1.563 3 -3.473 3 H 55.473 C 53.563 75 52 73.65 52 72 s 1.563 -3 3.473 -3 h 15.388 C 72.771 69 74.333 70.35 74.333 72 z" stroke-linecap="round"/>
</g>
		<g transform="matrix(1 0 0 1 -31 -49.5)" id="camera">
<line style="stroke: rgb(186,186,186); stroke-width: 4; stroke-dasharray: none; stroke-linecap: round; stroke-dashoffset: 0; stroke-linejoin: round; stroke-miterlimit: 10; is-custom-font: none; font-file-url: none; fill: none; fill-rule: nonzero; opacity: 1; visibility: hidden;" x1="0" y1="-4.5" x2="0" y2="4.5"/>
</g>
		<g transform="matrix(1 0 0 1 -21 -49.5)" id="camera">
<line style="stroke: rgb(186,186,186); stroke-width: 4; stroke-dasharray: none; stroke-linecap: round; stroke-dashoffset: 0; stroke-linejoin: round; stroke-miterlimit: 10; is-custom-font: none; font-file-url: none; fill: none; fill-rule: nonzero; opacity: 1; visibility: hidden;" x1="0" y1="-4.5" x2="0" y2="4.5"/>
</g>
		<g transform="matrix(1 0 0 1 -11 -49.5)" id="camera">
<line style="stroke: rgb(186,186,186); stroke-width: 4; stroke-dasharray: none; stroke-linecap: round; stroke-dashoffset: 0; stroke-linejoin: round; stroke-miterlimit: 10; is-custom-font: none; font-file-url: none; fill: none; fill-rule: nonzero; opacity: 1; visibility: hidden;" x1="0" y1="-4.5" x2="0" y2="4.5"/>
</g>
		<g transform="matrix(1 0 0 1 65 -58)" id="camera">
<path style="stroke: rgb(186,186,186); stroke-width: 4; stroke-dasharray: none; stroke-linecap: round; stroke-dashoffset: 0; stroke-linejoin: round; stroke-miterlimit: 10; is-custom-font: none; font-file-url: none; fill: none; fill-rule: nonzero; opacity: 1; visibility: hidden;" transform=" translate(-193, -70)" d="M 215 78 c 0 3.313 -2.687 6 -6 6 h -32 c -3.313 0 -6 -2.687 -6 -6 V 62 c 0 -3.313 2.687 -6 6 -6 h 32 c 3.313 0 6 2.687 6 6 V 78 z" stroke-linecap="round"/>
</g>
		<g transform="matrix(1 0 0 1 65.0005 -57.9995)" id="camera">
<path style="stroke: rgb(249,182,24); stroke-width: 4; stroke-dasharray: none; stroke-linecap: round; stroke-dashoffset: 0; stroke-linejoin: round; stroke-miterlimit: 10; is-custom-font: none; font-file-url: none; fill: none; fill-rule: nonzero; opacity: 1; visibility: hidden;" transform=" translate(-193.0005, -70.0005)" d="M 206 74.514 c 0 1.925 -1.561 3.486 -3.486 3.486 h -19.027 c -1.925 0 -3.486 -1.561 -3.486 -3.486 v -9.027 c 0 -1.925 1.561 -3.486 3.486 -3.486 h 19.027 c 1.925 0 3.486 1.561 3.486 3.486 V 74.514 z" stroke-linecap="round"/>
</g>
		<g transform="matrix(1 0 0 1 -64.581 -34.5)" id="camera">
<path style="stroke: rgb(186,186,186); stroke-width: 4; stroke-dasharray: none; stroke-linecap: round; stroke-dashoffset: 0; stroke-linejoin: round; stroke-miterlimit: 10; is-custom-font: none; font-file-url: none; fill: rgb(239,239,239); fill-rule: nonzero; opacity: 1; visibility: hidden;" transform=" translate(-63.419, -93.5)" d="M 89.838 89 H 42.032 C 39.253 89 37 91.253 37 94.032 V 98 h 47.333 L 89.838 89 z" stroke-linecap="round"/>
</g>
		<g transform="matrix(1 0 0 1 0 15.5)" id="camera">
<path style="stroke: rgb(186,186,186); stroke-width: 4; stroke-dasharray: none; stroke-linecap: round; stroke-dashoffset: 0; stroke-linejoin: round; stroke-miterlimit: 10; is-custom-font: none; font-file-url: none; fill: none; fill-rule: nonzero; opacity: 1; visibility: hidden;" transform=" translate(-128, -143.5)" d="M 213.968 89 H 89.838 l -5.504 9 H 37 v 94.968 c 0 2.779 2.253 5.032 5.032 5.032 h 171.936 c 2.779 0 5.032 -2.253 5.032 -5.032 V 94.032 C 219 91.253 216.747 89 213.968 89 z" stroke-linecap="round"/>
</g>
		<g transform="matrix(1 0 0 1 -47 19.5)" id="camera">
<line style="stroke: rgb(186,186,186); stroke-width: 4; stroke-dasharray: none; stroke-linecap: round; stroke-dashoffset: 0; stroke-linejoin: round; stroke-miterlimit: 10; is-custom-font: none; font-file-url: none; fill: none; fill-rule: nonzero; opacity: 1; visibility: hidden;" x1="0" y1="-43.5" x2="0" y2="43.5"/>
</g>
		<g transform="matrix(1 0 0 1 22 -21)" id="camera">
<line style="stroke: rgb(186,186,186); stroke-width: 4; stroke-dasharray: none; stroke-linecap: round; stroke-dashoffset: 0; stroke-linejoin: round; stroke-miterlimit: 10; is-custom-font: none; font-file-url: none; fill: none; fill-rule: nonzero; opacity: 1; visibility: hidden;" x1="-60" y1="0" x2="60" y2="0"/>
</g>
		<g transform="matrix(1 0 0 1 -24 -30.258)" id="camera">
<path style="stroke: rgb(186,186,186); stroke-width: 4; stroke-dasharray: none; stroke-linecap: round; stroke-dashoffset: 0; stroke-linejoin: round; stroke-miterlimit: 10; is-custom-font: none; font-file-url: none; fill: none; fill-rule: nonzero; opacity: 1; visibility: hidden;" transform=" translate(-104, -97.742)" d="M 104 97.742" stroke-linecap="round"/>
</g>
		<g transform="matrix(1 0 0 1 -24 -27)" id="camera">
<line style="stroke: rgb(238,83,37); stroke-width: 4; stroke-dasharray: none; stroke-linecap: round; stroke-dashoffset: 0; stroke-linejoin: round; stroke-miterlimit: 10; is-custom-font: none; font-file-url: none; fill: none; fill-rule: nonzero; opacity: 1; visibility: hidden;" x1="2" y1="0" x2="-2" y2="0"/>
</g>
		<g transform="matrix(1 0 0 1 -14 -27)" id="camera">
<line style="stroke: rgb(238,83,37); stroke-width: 4; stroke-dasharray: none; stroke-linecap: round; stroke-dashoffset: 0; stroke-linejoin: round; stroke-miterlimit: 10; is-custom-font: none; font-file-url: none; fill: none; fill-rule: nonzero; opacity: 1; visibility: hidden;" x1="2" y1="0" x2="-2" y2="0"/>
</g>
		<g transform="matrix(1 0 0 1 -4 -27)" id="camera">
<line style="stroke: rgb(238,83,37); stroke-width: 4; stroke-dasharray: none; stroke-linecap: round; stroke-dashoffset: 0; stroke-linejoin: round; stroke-miterlimit: 10; is-custom-font: none; font-file-url: none; fill: none; fill-rule: nonzero; opacity: 1; visibility: hidden;" x1="2" y1="0" x2="-2" y2="0"/>
</g>
		<g transform="matrix(1 0 0 1 -70.216 55)" id="router">
<circle style="stroke: rgb(238,83,37); stroke-width: 4; stroke-dasharray: none; stroke-linecap: round; stroke-dashoffset: 0; stroke-linejoin: round; stroke-miterlimit: 10; is-custom-font: none; font-file-url: none; fill: none; fill-rule: nonzero; opacity: 1; visibility: hidden;" cx="0" cy="0" r="8.667"/>
</g>
		<g transform="matrix(1 0 0 1 -45.216 55)" id="router">
<circle style="stroke: rgb(249,182,24); stroke-width: 4; stroke-dasharray: none; stroke-linecap: round; stroke-dashoffset: 0; stroke-linejoin: round; stroke-miterlimit: 10; is-custom-font: none; font-file-url: none; fill: none; fill-rule: nonzero; opacity: 1; visibility: hidden;" cx="0" cy="0" r="8.667"/>
</g>
		<g transform="matrix(1 0 0 1 -19.216 55)" id="router">
<circle style="stroke: rgb(83,174,225); stroke-width: 4; stroke-dasharray: none; stroke-linecap: round; stroke-dashoffset: 0; stroke-linejoin: round; stroke-miterlimit: 10; is-custom-font: none; font-file-url: none; fill: none; fill-rule: nonzero; opacity: 1; visibility: hidden;" cx="0" cy="0" r="8.667"/>
</g>
		<g transform="matrix(1 0 0 1 -55.667 -62.5)" id="router">
<path style="stroke: rgb(83,174,225); stroke-width: 4; stroke-dasharray: none; stroke-linecap: round; stroke-dashoffset: 0; stroke-linejoin: round; stroke-miterlimit: 10; is-custom-font: none; font-file-url: none; fill: none; fill-rule: nonzero; opacity: 1; visibility: hidden;" transform=" translate(-72.333, -65.5)" d="M 26.333 88.5 c 0 -25.364 20.636 -46 46 -46 s 46 20.636 46 46" stroke-linecap="round"/>
</g>
		<g transform="matrix(1 0 0 1 -55.667 -57.5)" id="router">
<path style="stroke: rgb(249,182,24); stroke-width: 4; stroke-dasharray: none; stroke-linecap: round; stroke-dashoffset: 0; stroke-linejoin: round; stroke-miterlimit: 10; is-custom-font: none; font-file-url: none; fill: none; fill-rule: nonzero; opacity: 1; visibility: hidden;" transform=" translate(-72.333, -70.5)" d="M 36.333 88.5 c 0 -19.882 16.118 -36 36 -36 s 36 16.118 36 36" stroke-linecap="round"/>
</g>
		<g transform="matrix(1 0 0 1 -55.667 -52.5)" id="router">
<path style="stroke: rgb(238,83,37); stroke-width: 4; stroke-dasharray: none; stroke-linecap: round; stroke-dashoffset: 0; stroke-linejoin: round; stroke-miterlimit: 10; is-custom-font: none; font-file-url: none; fill: none; fill-rule: nonzero; opacity: 1; visibility: hidden;" transform=" translate(-72.333, -75.5)" d="M 46.333 88.5 c 0 -14.336 11.664 -26 26 -26 s 26 11.664 26 26" stroke-linecap="round"/>
</g>
		<g transform="matrix(1 0 0 1 -57 -4.5)" id="router">
<line style="stroke: rgb(186,186,186); stroke-width: 4; stroke-dasharray: none; stroke-linecap: round; stroke-dashoffset: 0; stroke-linejoin: round; stroke-miterlimit: 10; is-custom-font: none; font-file-url: none; fill: none; fill-rule: nonzero; opacity: 1; visibility: hidden;" x1="0" y1="-29.5" x2="0" y2="29.5"/>
</g>
		<g transform="matrix(1 0 0 1 -56.433 -43.5)" id="router">
<circle style="stroke: rgb(186,186,186); stroke-width: 4; stroke-dasharray: none; stroke-linecap: round; stroke-dashoffset: 0; stroke-linejoin: round; stroke-miterlimit: 10; is-custom-font: none; font-file-url: none; fill: rgb(239,239,239); fill-rule: nonzero; opacity: 1; visibility: hidden;" cx="0" cy="0" r="9"/>
</g>
		<g transform="matrix(1 0 0 1 -21 55.5)" id="router">
<path style="stroke: rgb(186,186,186); stroke-width: 4; stroke-dasharray: none; stroke-linecap: round; stroke-dashoffset: 0; stroke-linejoin: round; stroke-miterlimit: 10; is-custom-font: none; font-file-url: none; fill: none; fill-rule: nonzero; opacity: 1; visibility: hidden;" transform=" translate(-107, -183.5)" d="M 47 153 c -11.046 0 -20 8.954 -20 20 v 21 c 0 11.046 8.954 20 20 20 h 140 v -61 H 47 z" stroke-linecap="round"/>
</g>
		<g transform="matrix(1 0 0 1 83 55.5)" id="router">
<path style="stroke: rgb(186,186,186); stroke-width: 4; stroke-dasharray: none; stroke-linecap: round; stroke-dashoffset: 0; stroke-linejoin: round; stroke-miterlimit: 10; is-custom-font: none; font-file-url: none; fill: rgb(239,239,239); fill-rule: nonzero; opacity: 1; visibility: hidden;" transform=" translate(-211, -183.5)" d="M 215 153 h -28 v 61 h 28 c 11.046 0 20 -8.954 20 -20 v -21 C 235 161.954 226.046 153 215 153 z" stroke-linecap="round"/>
</g>
		<g transform="matrix(1 0 0 1 -70 90.5)" id="router">
<line style="stroke: rgb(186,186,186); stroke-width: 4; stroke-dasharray: none; stroke-linecap: round; stroke-dashoffset: 0; stroke-linejoin: round; stroke-miterlimit: 10; is-custom-font: none; font-file-url: none; fill: none; fill-rule: nonzero; opacity: 1; visibility: hidden;" x1="0" y1="-4.5" x2="0" y2="4.5"/>
</g>
		<g transform="matrix(1 0 0 1 70 90.5)" id="router">
<line style="stroke: rgb(186,186,186); stroke-width: 4; stroke-dasharray: none; stroke-linecap: round; stroke-dashoffset: 0; stroke-linejoin: round; stroke-miterlimit: 10; is-custom-font: none; font-file-url: none; fill: none; fill-rule: nonzero; opacity: 1; visibility: hidden;" x1="0" y1="-4.5" x2="0" y2="4.5"/>
</g>
		<g transform="matrix(1 0 0 1 23 56)" id="router">
<line style="stroke: rgb(186,186,186); stroke-width: 4; stroke-dasharray: none; stroke-linecap: round; stroke-dashoffset: 0; stroke-linejoin: round; stroke-miterlimit: 10; is-custom-font: none; font-file-url: none; fill: none; fill-rule: nonzero; opacity: 1; visibility: hidden;" x1="-23" y1="0" x2="23" y2="0"/>
</g>
		<g transform="matrix(1 0 0 1 -2 2)" id="arrow_6">
<line style="stroke: rgb(186,186,186); stroke-width: 4; stroke-dasharray: none; stroke-linecap: round; stroke-dashoffset: 0; stroke-linejoin: round; stroke-miterlimit: 10; is-custom-font: none; font-file-url: none; fill: none; fill-rule: nonzero; opacity: 1;" x1="-82" y1="0" x2="82" y2="0"/>
</g>
		<g transform="matrix(1 0 0 1 75.394 2)" id="arrow_6">
<polyline style="stroke: rgb(186,186,186); stroke-width: 4; stroke-dasharray: none; stroke-linecap: round; stroke-dashoffset: 0; stroke-linejoin: round; stroke-miterlimit: 10; is-custom-font: none; font-file-url: none; fill: none; fill-rule: nonzero; opacity: 1;" points="-8.931,22.188 8.931,0 -8.931,-22.188 "/>
</g>
</g>
</g>
</svg>