<svg width="742" height="68" viewBox="0 0 742 68" fill="none" xmlns="http://www.w3.org/2000/svg">
<path d="M55.477 21.5H47.6389C47.1754 19.2455 46.3642 17.2649 45.2053 15.5582C44.0676 13.8516 42.6769 12.4188 41.0335 11.2599C39.4111 10.08 37.6096 9.19508 35.629 8.60511C33.6484 8.01515 31.5835 7.72017 29.4344 7.72017C25.5154 7.72017 21.9651 8.71046 18.7835 10.6911C15.623 12.6716 13.1051 15.5898 11.2298 19.4457C9.37568 23.3015 8.4486 28.0317 8.4486 33.6364C8.4486 39.241 9.37568 43.9712 11.2298 47.8271C13.1051 51.6829 15.623 54.6011 18.7835 56.5817C21.9651 58.5623 25.5154 59.5526 29.4344 59.5526C31.5835 59.5526 33.6484 59.2576 35.629 58.6676C37.6096 58.0777 39.4111 57.2032 41.0335 56.0444C42.6769 54.8645 44.0676 53.4212 45.2053 51.7145C46.3642 49.9867 47.1754 48.0062 47.6389 45.7727H55.477C54.887 49.0807 53.8125 52.0411 52.2533 54.6538C50.6941 57.2665 48.7557 59.4893 46.4379 61.3224C44.1202 63.1345 41.5181 64.5146 38.6315 65.4627C35.766 66.4109 32.7003 66.8849 29.4344 66.8849C23.914 66.8849 19.0047 65.5365 14.7064 62.8395C10.4081 60.1425 7.02637 56.3078 4.56117 51.3352C2.09597 46.3627 0.86337 40.4631 0.86337 33.6364C0.86337 26.8097 2.09597 20.91 4.56117 15.9375C7.02637 10.965 10.4081 7.13021 14.7064 4.43324C19.0047 1.73627 23.914 0.387782 29.4344 0.387782C32.7003 0.387782 35.766 0.861859 38.6315 1.81001C41.5181 2.75817 44.1202 4.14879 46.4379 5.98189C48.7557 7.79391 50.6941 10.0063 52.2533 12.619C53.8125 15.2106 54.887 18.1709 55.477 21.5ZM122.756 33.6364C122.756 40.4631 121.524 46.3627 119.059 51.3352C116.593 56.3078 113.212 60.1425 108.913 62.8395C104.615 65.5365 99.7057 66.8849 94.1854 66.8849C88.665 66.8849 83.7557 65.5365 79.4574 62.8395C75.1591 60.1425 71.7773 56.3078 69.3121 51.3352C66.8469 46.3627 65.6143 40.4631 65.6143 33.6364C65.6143 26.8097 66.8469 20.91 69.3121 15.9375C71.7773 10.965 75.1591 7.13021 79.4574 4.43324C83.7557 1.73627 88.665 0.387782 94.1854 0.387782C99.7057 0.387782 104.615 1.73627 108.913 4.43324C113.212 7.13021 116.593 10.965 119.059 15.9375C121.524 20.91 122.756 26.8097 122.756 33.6364ZM115.171 33.6364C115.171 28.0317 114.234 23.3015 112.358 19.4457C110.504 15.5898 107.986 12.6716 104.805 10.6911C101.644 8.71046 98.1044 7.72017 94.1854 7.72017C90.2663 7.72017 86.716 8.71046 83.5344 10.6911C80.3739 12.6716 77.8561 15.5898 75.9808 19.4457C74.1267 23.3015 73.1996 28.0317 73.1996 33.6364C73.1996 39.241 74.1267 43.9712 75.9808 47.8271C77.8561 51.6829 80.3739 54.6011 83.5344 56.5817C86.716 58.5623 90.2663 59.5526 94.1854 59.5526C98.1044 59.5526 101.644 58.5623 104.805 56.5817C107.986 54.6011 110.504 51.6829 112.358 47.8271C114.234 43.9712 115.171 39.241 115.171 33.6364ZM135.936 66V1.27273H143.774V59.0469H173.862V66H135.936ZM205.973 66H185.998V1.27273H206.858C213.136 1.27273 218.509 2.56854 222.976 5.16016C227.443 7.7307 230.867 11.4285 233.248 16.2536C235.629 21.0575 236.819 26.8097 236.819 33.5099C236.819 40.2524 235.618 46.0572 233.216 50.9244C230.814 55.7705 227.317 59.4999 222.723 62.1126C218.13 64.7042 212.547 66 205.973 66ZM193.836 59.0469H205.467C210.819 59.0469 215.254 58.0144 218.773 55.9496C222.291 53.8847 224.915 50.9454 226.642 47.1317C228.37 43.3181 229.234 38.7775 229.234 33.5099C229.234 28.2846 228.381 23.7861 226.674 20.0146C224.967 16.2219 222.418 13.3143 219.026 11.2915C215.633 9.24775 211.409 8.22585 206.352 8.22585H193.836V59.0469ZM274.998 66V1.27273H314.062V8.22585H282.836V30.0966H312.039V37.0497H282.836V59.0469H314.568V66H274.998ZM328.19 1.27273H337.545L359.542 55.0014H360.3L382.298 1.27273H391.653V66H384.32V16.8224H383.688L363.461 66H356.381L336.154 16.8224H335.522V66H328.19V1.27273ZM407.368 66V1.27273H429.239C434.317 1.27273 438.468 2.18927 441.691 4.02237C444.936 5.8344 447.338 8.28906 448.897 11.3864C450.457 14.4837 451.236 17.9392 451.236 21.7528C451.236 25.5665 450.457 29.0326 448.897 32.1509C447.359 35.2693 444.978 37.7556 441.755 39.6097C438.531 41.4428 434.401 42.3594 429.366 42.3594H413.689V35.4062H429.113C432.589 35.4062 435.381 34.8058 437.488 33.6048C439.595 32.4038 441.123 30.7814 442.071 28.7376C443.04 26.6727 443.525 24.3445 443.525 21.7528C443.525 19.1612 443.04 16.8435 442.071 14.7997C441.123 12.7559 439.584 11.1546 437.456 9.99574C435.328 8.81581 432.505 8.22585 428.986 8.22585H415.206V66H407.368ZM518.476 33.6364C518.476 40.4631 517.244 46.3627 514.778 51.3352C512.313 56.3078 508.931 60.1425 504.633 62.8395C500.335 65.5365 495.425 66.8849 489.905 66.8849C484.385 66.8849 479.475 65.5365 475.177 62.8395C470.879 60.1425 467.497 56.3078 465.032 51.3352C462.567 46.3627 461.334 40.4631 461.334 33.6364C461.334 26.8097 462.567 20.91 465.032 15.9375C467.497 10.965 470.879 7.13021 475.177 4.43324C479.475 1.73627 484.385 0.387782 489.905 0.387782C495.425 0.387782 500.335 1.73627 504.633 4.43324C508.931 7.13021 512.313 10.965 514.778 15.9375C517.244 20.91 518.476 26.8097 518.476 33.6364ZM510.891 33.6364C510.891 28.0317 509.953 23.3015 508.078 19.4457C506.224 15.5898 503.706 12.6716 500.524 10.6911C497.364 8.71046 493.824 7.72017 489.905 7.72017C485.986 7.72017 482.436 8.71046 479.254 10.6911C476.094 12.6716 473.576 15.5898 471.701 19.4457C469.846 23.3015 468.919 28.0317 468.919 33.6364C468.919 39.241 469.846 43.9712 471.701 47.8271C473.576 51.6829 476.094 54.6011 479.254 56.5817C482.436 58.5623 485.986 59.5526 489.905 59.5526C493.824 59.5526 497.364 58.5623 500.524 56.5817C503.706 54.6011 506.224 51.6829 508.078 47.8271C509.953 43.9712 510.891 39.241 510.891 33.6364ZM531.655 66V1.27273H553.526C558.583 1.27273 562.734 2.1366 565.979 3.86434C569.223 5.57102 571.625 7.92033 573.185 10.9123C574.744 13.9042 575.523 17.3071 575.523 21.1207C575.523 24.9344 574.744 28.3162 573.185 31.266C571.625 34.2158 569.234 36.5335 566.01 38.2191C562.786 39.8836 558.667 40.7159 553.653 40.7159H535.954V33.6364H553.4C556.855 33.6364 559.637 33.1307 561.744 32.1193C563.872 31.108 565.41 29.6752 566.358 27.821C567.327 25.9458 567.812 23.7124 567.812 21.1207C567.812 18.5291 567.327 16.2641 566.358 14.3256C565.389 12.3872 563.84 10.8912 561.712 9.83771C559.584 8.76314 556.771 8.22585 553.273 8.22585H539.494V66H531.655ZM562.123 36.9233L578.052 66H568.949L553.273 36.9233H562.123ZM596.422 1.27273V66H588.584V1.27273H596.422ZM654.615 1.27273H662.453V44.1293C662.453 48.554 661.41 52.5046 659.324 55.9812C657.259 59.4367 654.341 62.1652 650.57 64.1669C646.798 66.1475 642.373 67.1378 637.296 67.1378C632.218 67.1378 627.793 66.1475 624.021 64.1669C620.25 62.1652 617.321 59.4367 615.235 55.9812C613.17 52.5046 612.138 48.554 612.138 44.1293V1.27273H619.976V43.4972C619.976 46.6577 620.671 49.4705 622.062 51.9357C623.453 54.3799 625.433 56.3078 628.004 57.7195C630.595 59.1101 633.693 59.8054 637.296 59.8054C640.899 59.8054 643.996 59.1101 646.587 57.7195C649.179 56.3078 651.16 54.3799 652.529 51.9357C653.92 49.4705 654.615 46.6577 654.615 43.4972V1.27273ZM678.106 1.27273H687.461L709.458 55.0014H710.216L732.214 1.27273H741.569V66H734.236V16.8224H733.604L713.377 66H706.297L686.07 16.8224H685.438V66H678.106V1.27273Z" fill="black"/>
</svg>
